<mxfile host="65bd71144e">
    <diagram id="PM1qfxjBdRBVMdcpFEoq" name="Page-1">
        <mxGraphModel dx="822" dy="1746" grid="1" gridSize="10" guides="1" tooltips="1" connect="1" arrows="1" fold="1" page="1" pageScale="1" pageWidth="827" pageHeight="1169" math="0" shadow="0">
            <root>
                <mxCell id="0"/>
                <mxCell id="1" parent="0"/>
                <mxCell id="2" value="&lt;font style=&quot;font-size: 14px&quot;&gt;Class: Frame&lt;br&gt;&lt;br&gt;a simple class that only holds data&amp;nbsp;&lt;br&gt;&lt;br&gt;constructed with:&lt;br&gt;this.roll1 = null&lt;br&gt;this.roll2 = null&lt;br&gt;this.roll3 = null &amp;lt;&amp;lt; only used in frame 10&lt;br&gt;methods:&lt;br&gt;&lt;br&gt;setRoll1(score)&lt;br&gt;sets this.roll1 to score&lt;br&gt;&lt;br&gt;setRoll2(score)&lt;br&gt;sets this.roll2 to score&lt;br&gt;&lt;br&gt;setRoll3(score)&lt;br&gt;sets this.roll3 to score &amp;lt;&amp;lt; frame 10 only&lt;br&gt;&lt;br&gt;setTotal(score)&lt;br&gt;sets this.total to total&lt;br&gt;&lt;br&gt;addToTotal(score)&lt;br&gt;adds score to this.total&lt;br&gt;&lt;br&gt;&lt;br&gt;&lt;/font&gt;" style="rounded=1;whiteSpace=wrap;html=1;align=left;" vertex="1" parent="1">
                    <mxGeometry x="70" y="-150" width="270" height="510" as="geometry"/>
                </mxCell>
                <mxCell id="3" value="class: Scorecard&lt;br&gt;&lt;br&gt;the scorecard holds the data for each frame and performs the logic&lt;br&gt;&lt;br&gt;constructed with:&lt;br&gt;this.frames&lt;br&gt;&lt;br&gt;Methods:&lt;br&gt;&lt;br&gt;playRound(roll1, roll2)&lt;br&gt;&lt;br&gt;takes arguments for the roll values&lt;br&gt;creates a Frame instance and adds roll values&lt;br&gt;&lt;br&gt;Checks for strikes and spares.&lt;br&gt;If a spare is scored, this.bonusRolls++&lt;br&gt;if a strike is scored, this.bonusRolls += 2&lt;br&gt;&lt;br&gt;when bonus rolls are in play, the bonus score is added to the previous frame&lt;br&gt;&lt;br&gt;playFinalFrame(roll1, roll2, roll3)&lt;br&gt;&lt;br&gt;plays the final frame, similar to above but accounting for the final frame special case.&lt;br&gt;&lt;br&gt;playGame()&lt;br&gt;uses above methods to play the game.&lt;br&gt;" style="rounded=1;whiteSpace=wrap;html=1;fontSize=14;align=left;" vertex="1" parent="1">
                    <mxGeometry x="440" y="-150" width="286" height="510" as="geometry"/>
                </mxCell>
            </root>
        </mxGraphModel>
    </diagram>
</mxfile>